<svg width="24" height="24" viewBox="0 0 24 24" fill="none" xmlns="http://www.w3.org/2000/svg">
<path d="M16.0544 4.50312L14.1092 4.5C11.9239 4.5 10.5116 5.94892 10.5116 8.19152V9.89356H8.55586C8.38686 9.89356 8.25 10.0306 8.25 10.1996V12.6656C8.25 12.8346 8.38701 12.9715 8.55586 12.9715H10.5116V19.1941C10.5116 19.3631 10.6485 19.5 10.8175 19.5H13.3692C13.5382 19.5 13.6751 19.363 13.6751 19.1941V12.9715H15.9618C16.1308 12.9715 16.2677 12.8346 16.2677 12.6656L16.2686 10.1996C16.2686 10.1184 16.2363 10.0407 16.1791 9.98329C16.1218 9.92586 16.0438 9.89356 15.9626 9.89356H13.6751V8.45072C13.6751 7.75723 13.8403 7.40518 14.7437 7.40518L16.0541 7.40472C16.2229 7.40472 16.3598 7.2677 16.3598 7.09886V4.80898C16.3598 4.64029 16.2231 4.50343 16.0544 4.50312Z" fill="white"/>
</svg>
