<svg width="24" height="24" viewBox="0 0 24 24" fill="none" xmlns="http://www.w3.org/2000/svg">
<path d="M14.8125 4.5H9.1875C6.59906 4.5 4.5 6.59906 4.5 9.1875V14.8125C4.5 17.4009 6.59906 19.5 9.1875 19.5H14.8125C17.4009 19.5 19.5 17.4009 19.5 14.8125V9.1875C19.5 6.59906 17.4009 4.5 14.8125 4.5ZM18.0938 14.8125C18.0938 16.6219 16.6219 18.0938 14.8125 18.0938H9.1875C7.37812 18.0938 5.90625 16.6219 5.90625 14.8125V9.1875C5.90625 7.37812 7.37812 5.90625 9.1875 5.90625H14.8125C16.6219 5.90625 18.0938 7.37812 18.0938 9.1875V14.8125Z" fill="white"/>
<path d="M12 8.25C9.92906 8.25 8.25 9.92906 8.25 12C8.25 14.0709 9.92906 15.75 12 15.75C14.0709 15.75 15.75 14.0709 15.75 12C15.75 9.92906 14.0709 8.25 12 8.25ZM12 14.3438C10.7081 14.3438 9.65625 13.2919 9.65625 12C9.65625 10.7072 10.7081 9.65625 12 9.65625C13.2919 9.65625 14.3438 10.7072 14.3438 12C14.3438 13.2919 13.2919 14.3438 12 14.3438Z" fill="white"/>
<path d="M16.0312 8.46861C16.3072 8.46861 16.5309 8.24489 16.5309 7.96892C16.5309 7.69295 16.3072 7.46924 16.0312 7.46924C15.7553 7.46924 15.5316 7.69295 15.5316 7.96892C15.5316 8.24489 15.7553 8.46861 16.0312 8.46861Z" fill="white"/>
</svg>
