<svg aria-hidden="true" style="position: absolute; width: 0; height: 0; overflow: hidden;" version="1.1" xmlns="http://www.w3.org/2000/svg" xmlns:xlink="http://www.w3.org/1999/xlink">
<defs>
<symbol id="icon-bycicle" viewBox="0 0 41 32">
<path d="M10.323 30.452h-9.634c-0.381 0-0.688 0.308-0.688 0.688s0.308 0.688 0.688 0.688h9.634c0.381 0 0.688-0.308 0.688-0.688s-0.308-0.688-0.688-0.688z"></path>
<path d="M8.258 29.074c4.554 0 8.258-3.705 8.258-8.258 0-2.28-0.909-4.403-2.56-5.978-0.274-0.262-0.711-0.251-0.973 0.023-0.262 0.275-0.252 0.711 0.023 0.973 1.376 1.313 2.134 3.082 2.134 4.982 0 3.795-3.087 6.882-6.882 6.882s-6.882-3.087-6.882-6.882c0-3.795 3.087-6.882 6.882-6.882 0.381 0 0.688-0.308 0.688-0.688s-0.308-0.688-0.688-0.688c-4.554 0-8.258 3.704-8.258 8.258s3.704 8.258 8.258 8.258z"></path>
<path d="M11.699 9.806h0.349l-3.976 9.653c-0.67 0.092-1.191 0.662-1.191 1.358 0 0.759 0.617 1.376 1.376 1.376s1.376-0.617 1.376-1.376c0-0.315-0.11-0.601-0.289-0.834l3.883-9.429 4.355 6.324c0.215 0.313 0.642 0.393 0.957 0.177s0.392-0.644 0.176-0.957l-4.333-6.291h1.444c1.138 0 2.065-0.926 2.065-2.065s-0.926-2.065-2.065-2.065h-4.129c-0.381 0-0.688 0.308-0.688 0.688v2.753c-0 0.38 0.307 0.688 0.688 0.688zM12.387 7.053h3.441c0.38 0 0.688 0.308 0.688 0.688s-0.308 0.688-0.688 0.688h-3.441v-1.376z"></path>
<path d="M32.344 13.246c0 0.38 0.308 0.688 0.688 0.688 3.795 0 6.882 3.086 6.882 6.882s-3.087 6.882-6.882 6.882-6.882-3.087-6.882-6.882c0-2.062 0.913-3.998 2.507-5.313 0.293-0.242 0.334-0.675 0.092-0.968s-0.674-0.336-0.969-0.094c-1.91 1.577-3.007 3.899-3.007 6.375 0 4.553 3.704 8.258 8.258 8.258s8.258-3.705 8.258-8.258c0-4.554-3.704-8.258-8.258-8.258-0.381 0-0.688 0.308-0.688 0.688z"></path>
<path d="M21.333 30.452h-6.882c-0.381 0-0.688 0.308-0.688 0.688s0.308 0.688 0.688 0.688h6.882c0.381 0 0.688-0.308 0.688-0.688s-0.308-0.688-0.688-0.688z"></path>
<path d="M21.333 17.473v-2.162c0.381 0 0.688-0.308 0.688-0.688s-0.308-0.688-0.688-0.688h-1.376c-0.381 0-0.688 0.308-0.688 0.688s0.308 0.688 0.688 0.688v2.162c-1.184 0.308-2.065 1.376-2.065 2.655s0.88 2.347 2.065 2.655v2.162c-0.381 0-0.688 0.308-0.688 0.688s0.308 0.688 0.688 0.688h1.376c0.381 0 0.688-0.308 0.688-0.688s-0.308-0.688-0.688-0.688v-2.162c1.184-0.308 2.065-1.376 2.065-2.655s-0.88-2.347-2.065-2.655zM20.645 21.505c-0.758 0-1.376-0.617-1.376-1.376s0.618-1.376 1.376-1.376c0.759 0 1.376 0.617 1.376 1.376s-0.617 1.376-1.376 1.376z"></path>
<path d="M31.972 19.949c-0.194 0.237-0.316 0.537-0.316 0.867 0 0.759 0.618 1.376 1.376 1.376s1.376-0.617 1.376-1.376c0-0.681-0.499-1.244-1.149-1.354l-3.106-8.281h4.913c0.824 0 1.303-0.659 1.393-1.241l0.688-3.441c0.041-0.202-0.012-0.412-0.142-0.571s-0.325-0.252-0.532-0.252h-6.194c-0.381 0-0.688 0.308-0.688 0.688s0.308 0.688 0.688 0.688h5.354l-0.526 2.633c-0.010 0.048-0.040 0.114-0.041 0.12h-5.429l-2.155-5.747c-0.001-0.003-0.003-0.004-0.004-0.007s-0.001-0.005-0.001-0.008l-1.376-3.441c-0.141-0.353-0.545-0.522-0.895-0.383-0.353 0.141-0.525 0.542-0.384 0.895l1.254 3.132-2.588 4.529c-0.189 0.33-0.074 0.75 0.256 0.939 0.107 0.061 0.225 0.091 0.341 0.091 0.239 0 0.471-0.124 0.598-0.347l2.026-3.545 1.656 4.416-5.245 5.9c-0.253 0.284-0.227 0.719 0.057 0.972 0.131 0.117 0.294 0.174 0.457 0.174 0.189 0 0.378-0.078 0.514-0.231l4.763-5.357 3.060 8.163z"></path>
<path d="M40.602 30.452h-11.011c-0.381 0-0.688 0.308-0.688 0.688s0.308 0.688 0.688 0.688h11.011c0.381 0 0.688-0.308 0.688-0.688s-0.307-0.688-0.688-0.688z"></path>
<path d="M26.839 30.452h-1.376c-0.381 0-0.688 0.308-0.688 0.688s0.308 0.688 0.688 0.688h1.376c0.381 0 0.688-0.308 0.688-0.688s-0.308-0.688-0.688-0.688z"></path>
</symbol>
<symbol id="icon-city" viewBox="0 0 32 32">
<path d="M22.933 29.867h-14.933c-0.294 0-0.533 0.239-0.533 0.533v1.067c0 0.294 0.239 0.533 0.533 0.533s0.533-0.239 0.533-0.533v-0.533h14.4c0.294 0 0.533-0.239 0.533-0.533s-0.239-0.533-0.533-0.533z"></path>
<path d="M11.733 13.333c0 0.294 0.239 0.533 0.533 0.533h2.133c0.294 0 0.533-0.239 0.533-0.533v-3.2c0-0.294-0.239-0.533-0.533-0.533h-2.133c-0.294 0-0.533 0.239-0.533 0.533v3.2h-0zM12.8 10.667h1.067v2.133h-1.067v-2.133z"></path>
<path d="M6.933 6.4h-6.4c-0.294 0-0.533 0.239-0.533 0.533v10.667c0 0.294 0.239 0.533 0.533 0.533s0.533-0.239 0.533-0.533v-10.133h5.867c0.294 0 0.533-0.239 0.533-0.533s-0.239-0.533-0.533-0.533z"></path>
<path d="M25.6 26.133c0 0.294 0.239 0.533 0.533 0.533h2.133c0.294 0 0.533-0.239 0.533-0.533v-3.2c0-0.294-0.239-0.533-0.533-0.533h-2.133c-0.294 0-0.533 0.239-0.533 0.533v3.2zM26.667 23.467h1.067v2.133h-1.067v-2.133z"></path>
<path d="M2.667 19.2c-2.636 0-2.667 6.864-2.667 6.933 0 1.288 0.918 2.365 2.133 2.613v2.721c0 0.294 0.239 0.533 0.533 0.533s0.533-0.239 0.533-0.533v-2.721c1.215-0.248 2.133-1.325 2.133-2.613 0-0.069-0.030-6.933-2.667-6.933zM2.667 27.733c-0.882 0-1.6-0.718-1.6-1.6 0-2.657 0.714-5.867 1.6-5.867s1.6 3.21 1.6 5.867c0 0.882-0.718 1.6-1.6 1.6z"></path>
<path d="M5.867 16h-2.133c-0.294 0-0.533 0.239-0.533 0.533v1.067c0 0.294 0.239 0.533 0.533 0.533s0.533-0.239 0.533-0.533v-0.533h1.067v2.667c0 0.294 0.239 0.533 0.533 0.533s0.533-0.239 0.533-0.533v-3.2c0-0.294-0.239-0.533-0.533-0.533z"></path>
<path d="M26.133 13.867h2.133c0.294 0 0.533-0.239 0.533-0.533v-3.2c0-0.294-0.239-0.533-0.533-0.533h-2.133c-0.294 0-0.533 0.239-0.533 0.533v3.2c0 0.294 0.239 0.533 0.533 0.533zM26.667 10.667h1.067v2.133h-1.067v-2.133z"></path>
<path d="M5.867 9.6h-2.133c-0.294 0-0.533 0.239-0.533 0.533v3.2c0 0.294 0.239 0.533 0.533 0.533h2.133c0.294 0 0.533-0.239 0.533-0.533v-3.2c0-0.294-0.239-0.533-0.533-0.533zM5.333 12.8h-1.067v-2.133h1.067v2.133h-0z"></path>
<path d="M17.067 13.333c0 0.294 0.239 0.533 0.533 0.533h2.133c0.294 0 0.533-0.239 0.533-0.533v-3.2c0-0.294-0.239-0.533-0.533-0.533h-2.133c-0.294 0-0.533 0.239-0.533 0.533v3.2zM18.133 10.667h1.067v2.133h-1.067v-2.133z"></path>
<path d="M31.467 6.4h-6.4c-0.294 0-0.533 0.239-0.533 0.533s0.239 0.533 0.533 0.533h5.867v21.431c-0.167-0.060-0.345-0.098-0.533-0.098-0.092 0-0.184 0.008-0.274 0.024-0.368-0.663-1.068-1.091-1.859-1.091s-1.491 0.428-1.859 1.091c-0.090-0.016-0.182-0.024-0.274-0.024-0.882 0-1.6 0.718-1.6 1.6s0.718 1.6 1.6 1.6h4.267c0.882 0 1.6-0.718 1.6-1.6v-23.467c0-0.294-0.239-0.533-0.533-0.533zM30.4 30.933h-4.267c-0.294 0-0.533-0.239-0.533-0.533s0.239-0.533 0.533-0.533c0.102 0 0.199 0.029 0.289 0.087 0.146 0.094 0.329 0.111 0.49 0.046s0.28-0.205 0.319-0.374c0.113-0.486 0.539-0.826 1.036-0.826s0.923 0.34 1.036 0.826c0.039 0.169 0.158 0.309 0.319 0.374s0.343 0.048 0.49-0.046c0.347-0.224 0.822 0.050 0.822 0.446-0 0.294-0.239 0.533-0.533 0.533z"></path>
<path d="M17.6 7.467h2.133c0.294 0 0.533-0.239 0.533-0.533v-3.2c0-0.294-0.239-0.533-0.533-0.533h-2.133c-0.294 0-0.533 0.239-0.533 0.533v3.2c0 0.294 0.239 0.533 0.533 0.533zM18.133 4.267h1.067v2.133h-1.067v-2.133z"></path>
<path d="M17.067 19.733c0 0.294 0.239 0.533 0.533 0.533h2.133c0.294 0 0.533-0.239 0.533-0.533v-3.2c0-0.294-0.239-0.533-0.533-0.533h-2.133c-0.294 0-0.533 0.239-0.533 0.533v3.2zM18.133 17.067h1.067v2.133h-1.067v-2.133z"></path>
<path d="M12.267 7.467h2.133c0.294 0 0.533-0.239 0.533-0.533v-3.2c0-0.294-0.239-0.533-0.533-0.533h-2.133c-0.294 0-0.533 0.239-0.533 0.533v3.2c-0 0.294 0.239 0.533 0.533 0.533zM12.8 4.267h1.067v2.133h-1.067v-2.133z"></path>
<path d="M15.621 25.755c-0.096 0.101-0.155 0.24-0.155 0.379s0.059 0.277 0.155 0.379c0.101 0.096 0.24 0.155 0.379 0.155s0.277-0.059 0.379-0.155c0.096-0.101 0.155-0.24 0.155-0.379s-0.059-0.277-0.155-0.379c-0.203-0.197-0.555-0.197-0.757 0z"></path>
<path d="M11.733 19.733c0 0.294 0.239 0.533 0.533 0.533h2.133c0.294 0 0.533-0.239 0.533-0.533v-3.2c0-0.294-0.239-0.533-0.533-0.533h-2.133c-0.294 0-0.533 0.239-0.533 0.533v3.2h-0zM12.8 17.067h1.067v2.133h-1.067v-2.133z"></path>
<path d="M10.667 22.933c0 0.294 0.239 0.533 0.533 0.533h1.6v4.8c0 0.294 0.239 0.533 0.533 0.533s0.533-0.239 0.533-0.533v-4.8h4.267v4.8c0 0.294 0.239 0.533 0.533 0.533s0.533-0.239 0.533-0.533v-4.8h1.6c0.294 0 0.533-0.239 0.533-0.533s-0.239-0.533-0.533-0.533h-9.6c-0.294 0-0.533 0.239-0.533 0.533z"></path>
<path d="M25.6 19.733c0 0.294 0.239 0.533 0.533 0.533h2.133c0.294 0 0.533-0.239 0.533-0.533v-3.2c0-0.294-0.239-0.533-0.533-0.533h-2.133c-0.294 0-0.533 0.239-0.533 0.533v3.2zM26.667 17.067h1.067v2.133h-1.067v-2.133z"></path>
<path d="M22.933 0h-13.867c-0.294 0-0.533 0.239-0.533 0.533v27.733c0 0.294 0.239 0.533 0.533 0.533s0.533-0.239 0.533-0.533v-27.2h12.8v27.2c0 0.294 0.239 0.533 0.533 0.533s0.533-0.239 0.533-0.533v-27.733c0-0.294-0.239-0.533-0.533-0.533z"></path>
</symbol>
<symbol id="icon-fb" viewBox="0 0 32 32">
<path d="M21.406 6.004l-2.594-0.004c-2.914 0-4.797 1.932-4.797 4.922v2.269h-2.608c-0.225 0-0.408 0.183-0.408 0.408v3.288c0 0.225 0.183 0.408 0.408 0.408h2.608v8.297c0 0.225 0.183 0.408 0.408 0.408h3.402c0.225 0 0.408-0.183 0.408-0.408v-8.297h3.049c0.225 0 0.408-0.183 0.408-0.408l0.001-3.288c0-0.108-0.043-0.212-0.119-0.288s-0.18-0.12-0.289-0.12h-3.050v-1.924c0-0.925 0.22-1.394 1.425-1.394l1.747-0.001c0.225 0 0.408-0.183 0.408-0.408v-3.053c0-0.225-0.182-0.407-0.407-0.408z"></path>
</symbol>
<symbol id="icon-first-screen__logo" viewBox="0 0 77 32">
<path d="M0.797 20.87v-13.949h1.734v6.078h1.793v1.694h-1.793v6.178h-1.734zM5.321 14.692v-1.694h1.774v-6.078h1.754v13.949h-1.754v-6.178h-1.774zM10.402 17.92v-4.922c0-0.624 0.279-1.235 0.837-1.833 0.691-0.717 1.554-1.076 2.591-1.076v1.614c-0.784 0-1.329 0.325-1.634 0.976-0.093 0.199-0.139 0.399-0.139 0.598v4.384c0 0.492 0.226 0.91 0.678 1.255 0.319 0.239 0.684 0.359 1.096 0.359v1.614c-1.262 0-2.239-0.512-2.929-1.534-0.332-0.505-0.498-0.983-0.498-1.435zM14.687 20.89v-1.614c0.704 0 1.209-0.319 1.514-0.957 0.106-0.213 0.159-0.418 0.159-0.618v-4.424c0-0.545-0.233-0.976-0.697-1.295-0.292-0.186-0.624-0.279-0.996-0.279v-1.614c1.222 0 2.165 0.498 2.83 1.495 0.332 0.492 0.498 0.963 0.498 1.415v4.922c0 0.651-0.279 1.282-0.837 1.893-0.651 0.704-1.475 1.063-2.471 1.076zM19.509 18v-7.891h1.694v7.692c0 0.478 0.239 0.877 0.717 1.196 0.319 0.199 0.671 0.299 1.056 0.299v1.674c-1.275 0-2.258-0.498-2.949-1.495-0.345-0.505-0.518-0.996-0.518-1.475zM23.853 20.969v-1.674c0.717 0 1.242-0.286 1.574-0.857 0.12-0.213 0.179-0.425 0.179-0.638v-7.692h1.694v7.891c0 0.624-0.286 1.242-0.857 1.853-0.691 0.731-1.554 1.103-2.591 1.116zM28.457 18.040l1.574-0.299c0 0.598 0.312 1.069 0.937 1.415 0.306 0.146 0.598 0.226 0.877 0.239v1.574c-1.289 0-2.252-0.465-2.89-1.395-0.332-0.492-0.498-1.003-0.498-1.534zM28.556 13.138c0-1.209 0.551-2.106 1.654-2.69 0.531-0.279 1.063-0.418 1.594-0.418v1.554c-0.611 0-1.083 0.252-1.415 0.757-0.173 0.252-0.259 0.518-0.259 0.797 0 0.425 0.332 0.771 0.996 1.036 0.505 0.213 1.481 0.492 2.929 0.837 0.903 0.186 1.548 0.631 1.933 1.335 0.199 0.372 0.299 0.79 0.299 1.255 0 1.275-0.511 2.219-1.534 2.83-0.598 0.359-1.282 0.538-2.053 0.538v-1.574c0.611 0 1.123-0.213 1.534-0.638 0.292-0.306 0.438-0.664 0.438-1.076 0-0.531-0.525-0.957-1.574-1.275-0.266-0.080-0.691-0.193-1.275-0.339-0.624-0.146-1.076-0.266-1.355-0.359-1.010-0.399-1.621-1.003-1.833-1.813-0.053-0.239-0.080-0.492-0.080-0.757zM32.681 11.603v-1.574c1.142 0 2.066 0.425 2.77 1.275 0.438 0.545 0.658 1.116 0.658 1.714l-1.574 0.259c0-0.731-0.399-1.242-1.196-1.534-0.239-0.093-0.458-0.139-0.658-0.139zM37.464 17.92v-4.942c0.013-0.611 0.306-1.216 0.877-1.813 0.691-0.704 1.528-1.063 2.511-1.076v1.574c-0.638 0-1.136 0.279-1.495 0.837-0.146 0.239-0.219 0.458-0.219 0.658v1.355h4.464v-1.355c0-0.598-0.306-1.036-0.917-1.315-0.279-0.133-0.565-0.199-0.857-0.199v-1.554c0.917 0 1.734 0.325 2.451 0.976 0.598 0.571 0.903 1.202 0.917 1.893v3.168h-6.058v1.793c0 0.372 0.213 0.717 0.638 1.036 0.345 0.239 0.711 0.359 1.096 0.359v1.554c-1.209 0-2.159-0.492-2.85-1.475-0.372-0.518-0.558-1.010-0.558-1.475zM41.828 20.87v-1.574c0.797 0 1.395-0.345 1.793-1.036 0.080-0.146 0.139-0.286 0.179-0.418l1.415 0.518c-0.239 0.917-0.784 1.608-1.634 2.072-0.545 0.292-1.129 0.438-1.754 0.438zM46.192 6.92h1.754l3.547 12.116-0.638 1.833h-0.618l-4.045-13.949zM51.054 14.313l2.471-7.393h1.754c-0.119 0.385-0.618 1.926-1.494 4.623-1.023 3.135-1.607 4.935-1.754 5.4h-0.199l-0.777-2.63zM56.236 16.984v-6.556c0-0.704 0.299-1.421 0.896-2.152 0.797-0.957 1.807-1.441 3.029-1.455v1.734c-0.811 0-1.441 0.412-1.893 1.236-0.186 0.359-0.279 0.678-0.279 0.957v6.237c0 0.837 0.412 1.488 1.235 1.953 0.346 0.199 0.651 0.299 0.917 0.299v1.734c-0.757 0-1.515-0.272-2.272-0.817-1.076-0.797-1.621-1.853-1.634-3.168zM61.237 20.969v-1.734c0.465 0 0.936-0.206 1.415-0.618 0.505-0.452 0.764-0.996 0.777-1.634v-6.237c0-0.518-0.213-1.016-0.638-1.495-0.439-0.452-0.957-0.684-1.555-0.697v-1.734c1.342 0 2.418 0.578 3.228 1.734 0.465 0.664 0.698 1.289 0.698 1.873v6.556c0 1.475-0.658 2.604-1.973 3.388-0.691 0.399-1.342 0.598-1.953 0.598zM66.777 20.87h1.734v-13.949h-1.734v13.949zM69.507 14.632h2.152c1.74-0.013 2.829-0.678 3.268-1.993 0.173-0.531 0.259-1.162 0.259-1.893 0-2.431-1.096-3.707-3.288-3.826-0.080 0-0.159 0-0.239 0h-2.152v1.674h1.873c1.342 0.027 2.019 0.744 2.033 2.152-0.026 1.448-0.698 2.179-2.013 2.192h-1.893v1.694z"></path>
<path d="M0.145 30.609l1.536-2.037-1.441-1.914h0.456l1.313 1.759h0.54v-1.759h0.384v1.759h0.534l1.319-1.759h0.456l-1.447 1.914 1.536 2.037h-0.451l-1.402-1.837h-0.545v1.837h-0.384v-1.837h-0.551l-1.402 1.837h-0.451zM6.669 30.609v-3.951h0.384v3.417l2.449-3.417h0.362v3.951h-0.384v-3.356l-2.421 3.356h-0.39zM14.348 27.002h-1.408v3.606h-0.39v-3.606h-1.408v-0.345h3.206v0.345zM18.279 30.609v-3.606h-1.614l-0.022 0.835c-0.019 0.545-0.058 0.998-0.117 1.358s-0.143 0.644-0.25 0.851c-0.108 0.204-0.239 0.351-0.395 0.44-0.156 0.085-0.341 0.128-0.557 0.128v-0.345c0.145 0 0.273-0.037 0.384-0.111s0.206-0.204 0.284-0.39c0.078-0.186 0.139-0.442 0.184-0.768 0.048-0.33 0.080-0.748 0.095-1.252l0.033-1.091h2.36v3.951h-0.384zM21.91 30.637c-0.278 0-0.531-0.056-0.757-0.167s-0.421-0.262-0.584-0.451c-0.163-0.193-0.289-0.408-0.378-0.646-0.089-0.241-0.134-0.488-0.134-0.74 0-0.263 0.046-0.514 0.139-0.751 0.093-0.241 0.223-0.454 0.39-0.64 0.171-0.189 0.369-0.338 0.595-0.445 0.226-0.111 0.471-0.167 0.735-0.167 0.278 0 0.531 0.058 0.757 0.173s0.419 0.269 0.579 0.462c0.163 0.193 0.289 0.408 0.378 0.646s0.134 0.48 0.134 0.729c0 0.263-0.046 0.516-0.139 0.757-0.093 0.237-0.223 0.451-0.39 0.64-0.167 0.186-0.364 0.332-0.59 0.44s-0.471 0.161-0.735 0.161zM20.447 28.633c0 0.215 0.035 0.423 0.106 0.623 0.070 0.197 0.171 0.373 0.301 0.529 0.13 0.152 0.284 0.275 0.462 0.367 0.182 0.089 0.38 0.134 0.595 0.134 0.226 0 0.429-0.046 0.607-0.139 0.182-0.096 0.336-0.223 0.462-0.378 0.13-0.16 0.228-0.338 0.295-0.534s0.1-0.397 0.1-0.601c0-0.215-0.035-0.421-0.106-0.618s-0.173-0.373-0.306-0.529c-0.13-0.156-0.284-0.278-0.462-0.367s-0.375-0.134-0.59-0.134c-0.223 0-0.425 0.046-0.607 0.139-0.178 0.093-0.332 0.219-0.462 0.378-0.126 0.156-0.224 0.332-0.295 0.529-0.067 0.197-0.1 0.397-0.1 0.601zM28.138 29.59c0 0.197-0.050 0.373-0.15 0.529-0.1 0.152-0.236 0.273-0.406 0.362-0.167 0.085-0.351 0.128-0.551 0.128h-1.864v-3.951h1.903c0.186 0 0.345 0.050 0.479 0.15 0.137 0.096 0.241 0.223 0.312 0.378 0.074 0.152 0.111 0.312 0.111 0.479 0 0.197-0.050 0.378-0.15 0.545s-0.239 0.291-0.417 0.373c0.226 0.067 0.404 0.191 0.534 0.373 0.134 0.182 0.2 0.393 0.2 0.634zM27.748 29.523c0-0.134-0.030-0.256-0.089-0.367-0.059-0.115-0.141-0.208-0.245-0.278-0.1-0.070-0.215-0.106-0.345-0.106h-1.514v1.497h1.475c0.134 0 0.254-0.035 0.362-0.106s0.193-0.161 0.256-0.273c0.067-0.115 0.1-0.237 0.1-0.367zM25.556 26.997v1.458h1.358c0.13 0 0.245-0.033 0.345-0.1 0.1-0.070 0.18-0.161 0.239-0.273s0.089-0.23 0.089-0.356c0-0.134-0.028-0.254-0.083-0.362-0.056-0.111-0.132-0.2-0.228-0.267s-0.206-0.1-0.328-0.1h-1.391zM29.563 30.609v-3.951h0.384v3.417l2.449-3.417h0.362v3.951h-0.384v-3.356l-2.421 3.356h-0.39zM34.459 30.609v-3.951h0.384v3.417l2.449-3.417h0.362v3.951h-0.384v-3.356l-2.421 3.356h-0.39zM36.061 26.323c-0.182 0-0.336-0.026-0.462-0.078-0.122-0.056-0.215-0.13-0.278-0.223-0.063-0.096-0.096-0.2-0.1-0.312h0.306c0.004 0.096 0.043 0.184 0.117 0.262 0.078 0.078 0.217 0.117 0.417 0.117 0.193 0 0.328-0.035 0.406-0.106 0.078-0.074 0.119-0.165 0.122-0.273h0.306c-0.004 0.111-0.037 0.215-0.1 0.312-0.063 0.093-0.156 0.167-0.278 0.223-0.119 0.052-0.271 0.078-0.456 0.078zM41.419 30.609v-3.951h0.39v1.759h0.595l1.358-1.759h0.451l-1.486 1.914 1.581 2.037h-0.479l-1.414-1.837h-0.607v1.837h-0.39zM46.988 30.637c-0.278 0-0.531-0.056-0.757-0.167s-0.421-0.262-0.584-0.451c-0.163-0.193-0.289-0.408-0.378-0.646-0.089-0.241-0.134-0.488-0.134-0.74 0-0.263 0.046-0.514 0.139-0.751 0.093-0.241 0.223-0.454 0.39-0.64 0.171-0.189 0.369-0.338 0.595-0.445 0.226-0.111 0.471-0.167 0.735-0.167 0.278 0 0.531 0.058 0.757 0.173s0.419 0.269 0.579 0.462c0.163 0.193 0.289 0.408 0.378 0.646s0.134 0.48 0.134 0.729c0 0.263-0.046 0.516-0.139 0.757-0.093 0.237-0.223 0.451-0.39 0.64-0.167 0.186-0.364 0.332-0.59 0.44s-0.471 0.161-0.735 0.161zM45.524 28.633c0 0.215 0.035 0.423 0.106 0.623 0.071 0.197 0.171 0.373 0.301 0.529 0.13 0.152 0.284 0.275 0.462 0.367 0.182 0.089 0.38 0.134 0.595 0.134 0.226 0 0.429-0.046 0.607-0.139 0.182-0.096 0.336-0.223 0.462-0.378 0.13-0.16 0.228-0.338 0.295-0.534s0.1-0.397 0.1-0.601c0-0.215-0.035-0.421-0.106-0.618s-0.173-0.373-0.306-0.529c-0.13-0.156-0.284-0.278-0.462-0.367s-0.375-0.134-0.59-0.134c-0.223 0-0.425 0.046-0.607 0.139-0.178 0.093-0.332 0.219-0.462 0.378-0.126 0.156-0.224 0.332-0.295 0.529-0.067 0.197-0.1 0.397-0.1 0.601zM53.744 30.609v-3.217l-1.43 2.499h-0.245l-1.436-2.499v3.217h-0.39v-3.951h0.401l1.542 2.705 1.553-2.705h0.395v3.951h-0.39zM55.792 30.609v-3.951h2.983v3.951h-0.39v-3.606h-2.204v3.606h-0.39zM63.104 30.609v-3.606h-1.614l-0.022 0.835c-0.019 0.545-0.057 0.998-0.117 1.358s-0.143 0.644-0.25 0.851c-0.108 0.204-0.239 0.351-0.395 0.44-0.156 0.085-0.341 0.128-0.557 0.128v-0.345c0.145 0 0.273-0.037 0.384-0.111s0.206-0.204 0.284-0.39c0.078-0.186 0.139-0.442 0.184-0.768 0.048-0.33 0.080-0.748 0.095-1.252l0.033-1.091h2.36v3.951h-0.384zM67.798 30.264v0.345h-2.655v-3.951h2.605v0.345h-2.215v1.425h1.931v0.328h-1.931v1.508h2.265zM69.203 30.609v-3.951h0.39v1.759h0.595l1.358-1.759h0.451l-1.486 1.914 1.581 2.037h-0.479l-1.414-1.837h-0.607v1.837h-0.39zM72.919 28.605c0-0.241 0.041-0.477 0.122-0.707 0.085-0.234 0.208-0.445 0.367-0.634 0.16-0.193 0.356-0.345 0.59-0.456 0.234-0.115 0.499-0.173 0.796-0.173 0.352 0 0.653 0.082 0.902 0.245 0.252 0.16 0.438 0.365 0.557 0.618l-0.306 0.189c-0.085-0.174-0.193-0.312-0.323-0.412-0.13-0.104-0.269-0.178-0.417-0.223-0.145-0.045-0.289-0.067-0.434-0.067-0.237 0-0.447 0.048-0.629 0.145-0.182 0.093-0.336 0.219-0.462 0.378-0.122 0.156-0.215 0.332-0.278 0.529-0.063 0.193-0.095 0.39-0.095 0.59 0 0.219 0.037 0.429 0.111 0.629s0.178 0.378 0.312 0.534c0.134 0.152 0.289 0.275 0.467 0.367 0.182 0.089 0.378 0.134 0.59 0.134 0.148 0 0.301-0.026 0.456-0.078s0.301-0.132 0.434-0.239c0.137-0.108 0.247-0.247 0.328-0.417l0.323 0.167c-0.082 0.197-0.208 0.364-0.378 0.501s-0.362 0.241-0.573 0.312c-0.208 0.070-0.412 0.106-0.612 0.106-0.271 0-0.519-0.058-0.746-0.173-0.226-0.119-0.423-0.275-0.59-0.467-0.163-0.197-0.289-0.416-0.378-0.657-0.089-0.245-0.134-0.492-0.134-0.74z"></path>
</symbol>
<symbol id="icon-fontan" viewBox="0 0 32 32">
<path d="M21.356 1.849c0.073 0 0.147-0.015 0.218-0.047 0.153-0.068 0.307-0.133 0.464-0.192 0.276-0.105 0.414-0.413 0.309-0.688s-0.413-0.412-0.687-0.31c-0.177 0.067-0.351 0.14-0.522 0.217-0.269 0.121-0.389 0.436-0.268 0.705 0.089 0.198 0.283 0.315 0.487 0.315z"></path>
<path d="M21.333 13.415c0.295 0 0.533-0.238 0.533-0.533v-0.092c0-0.14 0.009-0.278 0.027-0.413 0.038-0.292-0.167-0.56-0.459-0.598-0.301-0.038-0.56 0.167-0.599 0.459-0.023 0.18-0.036 0.366-0.036 0.553v0.092c0 0.295 0.238 0.533 0.533 0.533z"></path>
<path d="M18.667 13.547c0.295 0 0.533-0.239 0.533-0.533v-0.542c0-0.294-0.238-0.533-0.533-0.533s-0.533 0.239-0.533 0.533v0.542c0 0.294 0.238 0.533 0.533 0.533z"></path>
<path d="M21.729 5.111c-0.172 0.094-0.34 0.196-0.501 0.305-0.245 0.164-0.311 0.495-0.147 0.74 0.103 0.154 0.272 0.236 0.444 0.236 0.102 0 0.205-0.029 0.296-0.090 0.137-0.091 0.278-0.177 0.423-0.257 0.258-0.142 0.352-0.467 0.21-0.724s-0.466-0.351-0.725-0.21z"></path>
<path d="M14.164 5.057c0.101 0.161 0.274 0.25 0.452 0.25 0.097 0 0.195-0.026 0.283-0.082 0.25-0.157 0.325-0.486 0.169-0.735-0.101-0.161-0.205-0.317-0.315-0.471-0.171-0.239-0.503-0.295-0.744-0.123s-0.295 0.505-0.124 0.744c0.097 0.136 0.191 0.275 0.28 0.417z"></path>
<path d="M23.915 1.129c0.022 0 0.045-0.002 0.067-0.004 0.165-0.021 0.332-0.037 0.5-0.049 0.294-0.020 0.516-0.274 0.497-0.567s-0.277-0.516-0.567-0.497c-0.19 0.012-0.378 0.031-0.563 0.054-0.292 0.037-0.5 0.303-0.462 0.596 0.034 0.269 0.263 0.467 0.528 0.467z"></path>
<path d="M21.938 9.889c-0.2 0.216-0.188 0.554 0.028 0.754 0.104 0.095 0.233 0.142 0.363 0.142 0.143 0 0.286-0.057 0.391-0.171 0.111-0.119 0.233-0.233 0.363-0.336 0.231-0.183 0.269-0.519 0.086-0.749s-0.519-0.27-0.749-0.086c-0.172 0.137-0.334 0.287-0.482 0.446z"></path>
<path d="M17.101 5.225c0.088 0.055 0.186 0.082 0.283 0.082 0.178 0 0.351-0.089 0.452-0.25 0.089-0.142 0.182-0.281 0.28-0.417 0.171-0.239 0.116-0.572-0.124-0.744s-0.573-0.116-0.744 0.123c-0.11 0.154-0.215 0.31-0.315 0.471-0.157 0.249-0.081 0.578 0.168 0.735z"></path>
<path d="M21.333 15.99c0.295 0 0.533-0.239 0.533-0.533v-0.267c0-0.294-0.238-0.533-0.533-0.533s-0.533 0.239-0.533 0.533v0.267c0 0.294 0.238 0.533 0.533 0.533z"></path>
<path d="M18.655 10.836c0.025 0.004 0.049 0.005 0.073 0.005 0.262 0 0.492-0.194 0.528-0.462 0.022-0.164 0.051-0.326 0.087-0.486 0.066-0.287-0.115-0.573-0.402-0.638s-0.573 0.115-0.638 0.402c-0.043 0.19-0.078 0.383-0.105 0.579-0.039 0.292 0.165 0.561 0.457 0.6z"></path>
<path d="M15.025 6.872c0.053 0.158 0.101 0.317 0.146 0.479 0.065 0.237 0.28 0.394 0.514 0.394 0.046 0 0.093-0.006 0.14-0.019 0.066-0.018 0.124-0.050 0.175-0.087 0.052 0.038 0.109 0.070 0.175 0.087 0.047 0.013 0.094 0.019 0.14 0.019 0.234 0 0.45-0.156 0.514-0.394 0.044-0.162 0.092-0.322 0.146-0.479 0.095-0.279-0.054-0.582-0.333-0.677-0.256-0.087-0.526 0.038-0.643 0.275-0.117-0.237-0.387-0.362-0.643-0.275-0.279 0.095-0.428 0.398-0.333 0.677z"></path>
<path d="M19.114 3.283c0.124 0 0.249-0.043 0.35-0.131 0.126-0.11 0.256-0.217 0.388-0.318 0.234-0.18 0.277-0.514 0.098-0.748s-0.515-0.278-0.748-0.098c-0.15 0.115-0.296 0.235-0.438 0.359-0.222 0.193-0.246 0.53-0.052 0.753 0.105 0.121 0.253 0.183 0.402 0.183z"></path>
<path d="M19.529 7.017c-0.117 0.156-0.228 0.317-0.332 0.482-0.157 0.249-0.082 0.579 0.167 0.736 0.089 0.055 0.186 0.082 0.284 0.082 0.177 0 0.35-0.088 0.452-0.249 0.089-0.14 0.182-0.277 0.282-0.409 0.177-0.235 0.13-0.57-0.105-0.747s-0.57-0.129-0.747 0.105z"></path>
<path d="M24.521 4.278c-0.197 0.015-0.391 0.038-0.583 0.070-0.291 0.048-0.487 0.323-0.439 0.613 0.043 0.261 0.268 0.446 0.525 0.446 0.029 0 0.058-0.002 0.087-0.007 0.163-0.027 0.326-0.046 0.492-0.059 0.294-0.023 0.514-0.279 0.491-0.573s-0.273-0.515-0.573-0.49z"></path>
<path d="M26.494 1.168c0.166 0.027 0.331 0.058 0.494 0.094 0.039 0.009 0.077 0.012 0.115 0.012 0.245 0 0.466-0.17 0.521-0.419 0.063-0.288-0.119-0.572-0.407-0.635-0.183-0.041-0.368-0.075-0.555-0.105-0.291-0.048-0.564 0.152-0.61 0.443s0.151 0.564 0.443 0.61z"></path>
<path d="M27.407 4.661c-0.184-0.066-0.371-0.124-0.561-0.174-0.283-0.074-0.576 0.094-0.652 0.379-0.075 0.285 0.094 0.577 0.379 0.652 0.161 0.042 0.318 0.091 0.473 0.147 0.060 0.021 0.12 0.031 0.18 0.031 0.219 0 0.424-0.136 0.502-0.354 0.1-0.277-0.045-0.583-0.322-0.682z"></path>
<path d="M24.85 8.528c-0.294 0.015-0.521 0.265-0.506 0.559s0.245 0.518 0.559 0.506c0.164-0.008 0.333-0.003 0.495 0.013 0.019 0.002 0.037 0.003 0.056 0.003 0.27 0 0.501-0.204 0.53-0.478 0.030-0.293-0.183-0.555-0.476-0.586-0.216-0.022-0.439-0.029-0.657-0.017z"></path>
<path d="M31.073 3.549c0.105 0.115 0.25 0.174 0.394 0.174 0.129 0 0.257-0.046 0.359-0.139 0.218-0.198 0.233-0.536 0.035-0.754-0.064-0.070-0.129-0.139-0.195-0.206-0.207-0.211-0.544-0.213-0.754-0.007s-0.214 0.543-0.009 0.754c0.058 0.058 0.114 0.118 0.169 0.178z"></path>
<path d="M22.933 20.256h-6.4c-0.295 0-0.533 0.239-0.533 0.533s0.238 0.533 0.533 0.533h6.4c1.495 0 2.667-1.171 2.667-2.667v-1.067c0-0.294-0.238-0.533-0.533-0.533h-18.133c-0.295 0-0.533 0.239-0.533 0.533v1.067c0 1.495 1.171 2.667 2.667 2.667h4.8v2.667c0 0.294 0.238 0.533 0.533 0.533s0.533-0.239 0.533-0.533v-3.2c0-0.294-0.238-0.533-0.533-0.533h-5.333c-0.898 0-1.6-0.703-1.6-1.6v-0.533h17.067v0.533c-0 0.897-0.703 1.6-1.6 1.6z"></path>
<path d="M28.259 12.561c0.005 0.075 0.008 0.152 0.008 0.229 0 0.294 0.238 0.533 0.533 0.533s0.533-0.239 0.533-0.533c0-0.102-0.004-0.204-0.011-0.305-0.021-0.293-0.27-0.515-0.57-0.494-0.294 0.021-0.515 0.276-0.494 0.57z"></path>
<path d="M27.132 9.633c-0.195 0.221-0.173 0.558 0.047 0.753 0.124 0.109 0.239 0.228 0.344 0.354 0.106 0.127 0.258 0.192 0.411 0.192 0.12 0 0.241-0.041 0.341-0.123 0.226-0.189 0.257-0.525 0.068-0.751-0.139-0.167-0.294-0.326-0.459-0.471-0.22-0.194-0.557-0.174-0.753 0.047z"></path>
<path d="M16.533 12.226c0-0.294-0.238-0.533-0.533-0.533s-0.533 0.239-0.533 0.533v0.593c0 0.294 0.238 0.533 0.533 0.533s0.533-0.239 0.533-0.533v-0.593z"></path>
<path d="M16 14.656c-0.295 0-0.533 0.239-0.533 0.533v0.267c0 0.294 0.238 0.533 0.533 0.533s0.533-0.239 0.533-0.533v-0.267c0-0.294-0.238-0.533-0.533-0.533z"></path>
<path d="M18.133 15.456c0 0.294 0.238 0.533 0.533 0.533s0.533-0.239 0.533-0.533v-0.267c0-0.294-0.238-0.533-0.533-0.533s-0.533 0.239-0.533 0.533v0.267z"></path>
<path d="M16.533 9.59c0-0.084 0.001-0.167 0.004-0.251 0.006-0.228-0.133-0.423-0.332-0.505-0.020-0.009-0.043-0.009-0.065-0.015-0.040-0.011-0.078-0.027-0.121-0.028-0.005-0.001-0.010-0.001-0.016-0.001-0.001 0-0.002 0.001-0.003 0.001s-0.002-0.001-0.003-0.001c-0.006 0-0.011 0-0.016 0.001-0.043 0.001-0.082 0.017-0.121 0.028-0.021 0.006-0.045 0.006-0.065 0.015-0.199 0.082-0.339 0.277-0.332 0.505 0.003 0.084 0.004 0.167 0.004 0.251v0.267c0 0.294 0.238 0.533 0.533 0.533s0.533-0.239 0.533-0.533v-0.267z"></path>
<path d="M12.8 15.456c0 0.294 0.238 0.533 0.533 0.533s0.533-0.239 0.533-0.533v-0.267c0-0.294-0.238-0.533-0.533-0.533s-0.533 0.239-0.533 0.533v0.267z"></path>
<path d="M13.333 13.547c0.295 0 0.533-0.239 0.533-0.533v-0.542c0-0.294-0.238-0.533-0.533-0.533s-0.533 0.239-0.533 0.533v0.542c0 0.294 0.238 0.533 0.533 0.533z"></path>
<path d="M11.2 15.456v-0.267c0-0.294-0.238-0.533-0.533-0.533s-0.533 0.239-0.533 0.533v0.267c0 0.294 0.238 0.533 0.533 0.533s0.533-0.239 0.533-0.533z"></path>
<path d="M3.725 10.809c0.1 0.083 0.22 0.123 0.341 0.123 0.153 0 0.305-0.065 0.411-0.192 0.105-0.126 0.22-0.245 0.344-0.354 0.221-0.195 0.242-0.532 0.047-0.753s-0.531-0.243-0.753-0.048c-0.165 0.145-0.32 0.304-0.459 0.472-0.188 0.227-0.157 0.563 0.069 0.751z"></path>
<path d="M29.333 25.59h-11.2v-2.667c0-0.294-0.238-0.533-0.533-0.533s-0.533 0.239-0.533 0.533v3.2c0 0.294 0.238 0.533 0.533 0.533h11.2v2.667c0 0.882-0.718 1.6-1.6 1.6h-22.4c-0.882 0-1.6-0.718-1.6-1.6v-2.667h12.311c0.295 0 0.533-0.239 0.533-0.533s-0.238-0.533-0.533-0.533h-12.844c-0.295 0-0.533 0.239-0.533 0.533v3.2c0 1.47 1.196 2.667 2.667 2.667h22.4c1.47 0 2.667-1.196 2.667-2.667v-3.2c-0-0.294-0.238-0.533-0.533-0.533z"></path>
<path d="M12.8 28.256v1.067c0 0.294 0.238 0.533 0.533 0.533s0.533-0.239 0.533-0.533v-1.067c0-0.294-0.238-0.533-0.533-0.533s-0.533 0.239-0.533 0.533z"></path>
<path d="M0.557 10.39c-0.006-0.001-0.013-0.001-0.019-0.001-0.285 0-0.523 0.227-0.532 0.515-0.004 0.095-0.006 0.19-0.006 0.285 0 0.294 0.238 0.533 0.533 0.533s0.533-0.239 0.533-0.533c0-0.083 0.002-0.165 0.005-0.248 0.010-0.294-0.22-0.541-0.514-0.551z"></path>
<path d="M2.861 6.966c0.119-0.115 0.244-0.225 0.372-0.33 0.228-0.187 0.262-0.523 0.076-0.75s-0.522-0.263-0.75-0.076c-0.151 0.124-0.298 0.253-0.437 0.389-0.212 0.204-0.218 0.542-0.014 0.754 0.105 0.108 0.244 0.163 0.384 0.163 0.133-0 0.267-0.050 0.37-0.15z"></path>
<path d="M1.451 7.841c-0.263-0.131-0.585-0.026-0.716 0.238-0.087 0.174-0.169 0.353-0.241 0.534-0.109 0.274 0.024 0.584 0.297 0.693 0.065 0.026 0.132 0.038 0.198 0.038 0.212 0 0.412-0.127 0.495-0.335 0.061-0.154 0.13-0.305 0.204-0.453 0.132-0.263 0.026-0.583-0.237-0.716z"></path>
<path d="M2.412 2.225c0.090 0 0.182-0.023 0.266-0.071 0.145-0.083 0.291-0.162 0.441-0.235 0.264-0.13 0.373-0.45 0.243-0.714s-0.451-0.373-0.714-0.243c-0.171 0.084-0.338 0.173-0.502 0.267-0.255 0.147-0.343 0.473-0.196 0.729 0.099 0.171 0.278 0.267 0.462 0.267z"></path>
<path d="M7.467 28.256v1.067c0 0.294 0.238 0.533 0.533 0.533s0.533-0.239 0.533-0.533v-1.067c0-0.294-0.238-0.533-0.533-0.533s-0.533 0.239-0.533 0.533z"></path>
<path d="M31.208 9.307c0.273-0.109 0.406-0.419 0.297-0.693-0.073-0.182-0.154-0.361-0.241-0.534-0.132-0.263-0.452-0.369-0.716-0.238-0.263 0.132-0.37 0.452-0.237 0.716 0.074 0.148 0.142 0.299 0.204 0.453 0.083 0.209 0.284 0.335 0.495 0.335 0.067-0 0.133-0.012 0.198-0.038z"></path>
<path d="M31.994 10.904c-0.010-0.295-0.271-0.531-0.551-0.514-0.294 0.010-0.524 0.257-0.514 0.551 0.003 0.083 0.005 0.165 0.005 0.248 0 0.294 0.238 0.533 0.533 0.533s0.533-0.239 0.533-0.533c0-0.095-0.002-0.19-0.006-0.285z"></path>
<path d="M29.854 1.23c-0.164-0.094-0.331-0.183-0.502-0.267-0.262-0.129-0.584-0.021-0.714 0.243s-0.021 0.584 0.243 0.714c0.15 0.073 0.297 0.151 0.441 0.235 0.084 0.048 0.176 0.071 0.266 0.071 0.185 0 0.364-0.096 0.463-0.267 0.147-0.256 0.059-0.581-0.196-0.729z"></path>
<path d="M24.533 29.323v-1.067c0-0.294-0.238-0.533-0.533-0.533s-0.533 0.239-0.533 0.533v1.067c0 0.294 0.238 0.533 0.533 0.533s0.533-0.239 0.533-0.533z"></path>
<path d="M19.2 29.323v-1.067c0-0.294-0.238-0.533-0.533-0.533s-0.533 0.239-0.533 0.533v1.067c0 0.294 0.238 0.533 0.533 0.533s0.533-0.239 0.533-0.533z"></path>
<path d="M29.442 5.81c-0.229-0.187-0.565-0.152-0.75 0.076-0.187 0.228-0.153 0.564 0.075 0.75 0.129 0.105 0.253 0.214 0.372 0.33 0.103 0.1 0.237 0.15 0.37 0.15 0.14 0 0.279-0.054 0.384-0.163 0.204-0.212 0.198-0.55-0.014-0.754-0.14-0.135-0.286-0.265-0.437-0.389z"></path>
<path d="M3.248 11.991c-0.305-0.020-0.549 0.201-0.57 0.494-0.007 0.101-0.011 0.202-0.011 0.305 0 0.294 0.238 0.533 0.533 0.533s0.533-0.239 0.533-0.533c0-0.077 0.003-0.154 0.008-0.229 0.021-0.294-0.2-0.549-0.494-0.57z"></path>
<path d="M10.565 11.778c-0.291 0.038-0.497 0.306-0.459 0.598 0.018 0.135 0.027 0.273 0.027 0.413v0.092c0 0.295 0.238 0.533 0.533 0.533s0.533-0.238 0.533-0.533v-0.092c0-0.186-0.012-0.372-0.036-0.553-0.039-0.292-0.301-0.498-0.599-0.459z"></path>
<path d="M9.963 1.61c0.157 0.059 0.311 0.124 0.464 0.192 0.071 0.032 0.145 0.047 0.218 0.047 0.204 0 0.398-0.117 0.487-0.315 0.121-0.269 0.001-0.585-0.268-0.705-0.171-0.077-0.346-0.149-0.522-0.217-0.274-0.102-0.583 0.034-0.687 0.31s0.034 0.583 0.309 0.688z"></path>
<path d="M9.756 6.045c0.145 0.080 0.286 0.166 0.423 0.257 0.091 0.061 0.194 0.090 0.296 0.090 0.172 0 0.341-0.083 0.444-0.236 0.164-0.245 0.098-0.576-0.147-0.74-0.162-0.108-0.33-0.21-0.501-0.305-0.259-0.141-0.582-0.049-0.725 0.21s-0.047 0.582 0.21 0.724z"></path>
<path d="M0.533 3.723c0.145 0 0.289-0.059 0.394-0.174 0.055-0.060 0.111-0.12 0.169-0.178 0.205-0.211 0.202-0.548-0.009-0.754-0.21-0.206-0.547-0.202-0.754 0.007-0.066 0.067-0.131 0.136-0.195 0.206-0.198 0.218-0.183 0.555 0.035 0.754 0.102 0.093 0.231 0.139 0.36 0.139z"></path>
<path d="M8.917 10.278c0.13 0.103 0.252 0.217 0.363 0.336 0.106 0.114 0.248 0.171 0.391 0.171 0.13 0 0.26-0.047 0.363-0.142 0.216-0.2 0.228-0.538 0.028-0.754-0.148-0.159-0.31-0.309-0.482-0.446-0.232-0.183-0.567-0.145-0.749 0.086-0.183 0.23-0.145 0.566 0.086 0.749z"></path>
<path d="M11.901 8.067c0.101 0.161 0.275.082 0.249-0.157 0.324-0.487 0.167-0.736-0.105-0.165-0.216-0.326-0.332-0.482-0.178-0.234-0.511-0.283-0.747-0.105s-0.282 0.512-0.105 0.747c0.1 0.132 0.194 0.268 0.282 0.409z"></path>
<path d="M12.148 2.834c0.132 0.102 0.262 0.209 0.388 0.318 0.101 0.088 0.226 0.131 0.35 0.131 0.149 0 0.297-0.062 0.402-0.183 0.194-0.222 0.17-0.559-0.052-0.753-0.142-0.124-0.288-0.244-0.438-0.359-0.233-0.18-0.567-0.136-0.748 0.098-0.179 0.234-0.136 0.568 0.098 0.748z"></path>
<path d="M4.897 1.274c0.038 0 0.076-0.004 0.114-0.012 0.164-0.036 0.329-0.067 0.495-0.094 0.291-0.046 0.489-0.319 0.443-0.61s-0.318-0.491-0.61-0.443c-0.187 0.030-0.372 0.065-0.555 0.105-0.288 0.063-0.47 0.347-0.407 0.635 0.055 0.249 0.275 0.419 0.521 0.419z"></path>
<path d="M7.517 1.076c0.169 0.012 0.335 0.028 0.5 0.049 0.022 0.003 0.045 0.004 0.067 0.004 0.265 0 0.495-0.197 0.528-0.467 0.037-0.292-0.17-0.559-0.462-0.596-0.186-0.023-0.373-0.042-0.563-0.054-0.287-0.021-0.549 0.203-0.568 0.497s0.203 0.548 0.497 0.567z"></path>
<path d="M13.058 9.256c-0.287 0.065-0.468 0.35-0.403 0.638 0.037 0.16 0.066 0.322 0.088 0.486 0.037 0.268 0.266 0.462 0.529 0.462 0.024 0 0.048-0.002 0.072-0.005 0.292-0.039 0.497-0.308 0.457-0.6-0.027-0.195-0.062-0.388-0.105-0.579-0.065-0.287-0.352-0.467-0.638-0.402z"></path>
<path d="M4.773 5.697c0.060 0 0.121-0.010 0.18-0.031 0.155-0.056 0.313-0.105 0.473-0.147 0.285-0.076 0.454-0.367 0.379-0.652s-0.368-0.453-0.652-0.379c-0.189 0.050-0.377 0.109-0.561 0.174-0.277 0.099-0.421 0.405-0.322 0.682 0.078 0.218 0.283 0.354 0.502 0.354z"></path>
<path d="M7.397 5.341c0.166 0.013 0.33 0.033 0.492 0.059 0.029 0.005 0.058 0.007 0.087 0.007 0.257 0 0.483-0.185 0.525-0.446 0.048-0.291-0.149-0.565-0.439-0.613-0.191-0.031-0.386-0.055-0.583-0.070-0.29-0.026-0.55 0.196-0.573 0.49s0.197 0.55 0.491 0.573z"></path>
<path d="M6.547 9.609c0.018 0 0.037-0.001 0.055-0.003 0.162-0.017 0.331-0.021 0.495-0.013 0.307 0.014 0.545-0.212 0.559-0.506s-0.212-0.544-0.506-0.559c-0.218-0.012-0.442-0.005-0.657 0.017-0.293 0.030-0.506 0.292-0.476 0.586 0.029 0.274 0.26 0.478 0.53 0.478z"></path>
</symbol>
<symbol id="icon-Instagram" viewBox="0 0 32 32">
<path d="M19.75 6h-7.5c-3.451 0-6.25 2.799-6.25 6.25v7.5c0 3.451 2.799 6.25 6.25 6.25h7.5c3.451 0 6.25-2.799 6.25-6.25v-7.5c0-3.451-2.799-6.25-6.25-6.25zM24.125 19.75c0 2.413-1.963 4.375-4.375 4.375h-7.5c-2.412 0-4.375-1.963-4.375-4.375v-7.5c0-2.412 1.963-4.375 4.375-4.375h7.5c2.413 0 4.375 1.963 4.375 4.375v7.5z"></path>
<path d="M16 11c-2.761 0-5 2.239-5 5s2.239 5 5 5c2.761 0 5-2.239 5-5s-2.239-5-5-5zM16 19.125c-1.723 0-3.125-1.403-3.125-3.125 0-1.724 1.402-3.125 3.125-3.125s3.125 1.401 3.125 3.125c0 1.723-1.403 3.125-3.125 3.125z"></path>
<path d="M21.375 11.291c0.368 0 0.666-0.298 0.666-0.666s-0.298-0.666-0.666-0.666c-0.368 0-0.666 0.298-0.666 0.666s0.298 0.666 0.666 0.666z"></path>
</symbol>
<symbol id="icon-local" viewBox="0 0 23 32">
<path d="M11.31 7.013c-2.255 0-4.091 1.836-4.091 4.091s1.836 4.091 4.091 4.091c2.255 0 4.091-1.836 4.091-4.091s-1.836-4.091-4.091-4.091zM11.31 14.026c-1.611 0-2.922-1.311-2.922-2.922s1.311-2.922 2.922-2.922c1.611 0 2.922 1.311 2.922 2.922s-1.311 2.922-2.922 2.922z"></path>
<path d="M19.132 3.283c-2.117-2.117-4.931-3.283-7.924-3.283s-5.808 1.166-7.924 3.283c-3.917 3.917-4.404 11.286-1.054 15.751l8.979 12.967 8.965-12.949c3.363-4.483 2.876-11.852-1.041-15.769zM19.225 18.368l-8.017 11.578-8.030-11.596c-3.038-4.051-2.603-10.706 0.933-14.241 1.896-1.896 4.416-2.94 7.098-2.94s5.202 1.044 7.098 2.94c3.536 3.535 3.971 10.19 0.919 14.259z"></path>
</symbol>
<symbol id="icon-mouse" viewBox="0 0 32 32">
<path d="M15.976 0c-5.198 0.005-9.411 4.218-9.416 9.416v13.168c0.26 4.996 4.374 8.949 9.412 8.949s9.152-3.953 9.411-8.925l0.001-0.023v-13.168c0-5.2-4.216-9.416-9.408-9.416zM23.464 22.584c-0.231 3.958-3.497 7.080-7.492 7.080s-7.261-3.122-7.491-7.059l-0.001-0.020v-13.168c0.231-3.958 3.497-7.080 7.492-7.080s7.261 3.122 7.491 7.059l0.001 0.020v13.168z"></path>
<path d="M15.976 6.368c-0.528 0-0.96 0.424-0.96 0.96v4.416c0 0.53 0.43 0.96 0.96 0.96s0.96-0.43 0.96-0.96v0-4.416c0-0.536-0.432-0.96-0.96-0.96z"></path>
</symbol>
<symbol id="icon-park" viewBox="0 0 32 32">
<path d="M29.333 18.133c0.295 0 0.533-0.239 0.533-0.533v-2.133c0-0.294-0.238-0.533-0.533-0.533h-2.667v-0.533c0-0.294-0.238-0.533-0.533-0.533s-0.533 0.239-0.533 0.533v0.533h-14.933v-0.533c0-0.294-0.239-0.533-0.533-0.533s-0.533 0.239-0.533 0.533v0.533h-2.667c-0.294 0-0.533 0.239-0.533 0.533v2.133c0 0.294 0.239 0.533 0.533 0.533h22.4zM7.467 17.067v-1.067h21.333v1.067h-21.333z"></path>
<path d="M19.2 11.733c-0.862 0-1.42 0.655-1.481 0.731-0.185 0.227-0.15 0.558 0.075 0.745s0.561 0.155 0.75-0.068c0.002-0.004 0.291-0.34 0.655-0.34s0.653 0.337 0.653 0.337c0.106 0.13 0.259 0.197 0.414 0.197 0.118 0 0.237-0.039 0.336-0.119 0.229-0.186 0.263-0.522 0.077-0.75-0.061-0.075-0.618-0.731-1.48-0.731z"></path>
<path d="M29.333 22.4c0.295 0 0.533-0.239 0.533-0.533v-2.133c0-0.294-0.238-0.533-0.533-0.533h-2.667v-0.533c0-0.294-0.238-0.533-0.533-0.533s-0.533 0.239-0.533 0.533v0.533h-14.933v-0.533c0-0.294-0.239-0.533-0.533-0.533s-0.533 0.239-0.533 0.533v0.533h-2.667c-0.294 0-0.533 0.239-0.533 0.533v2.133c0 0.294 0.239 0.533 0.533 0.533h22.4zM7.467 21.333v-1.067h21.333v1.067h-21.333z"></path>
<path d="M21.986 10.469c0.106 0.13 0.259 0.197 0.414 0.197 0.118 0 0.237-0.039 0.336-0.119 0.229-0.186 0.263-0.522 0.077-0.75-0.061-0.075-0.618-0.731-1.481-0.731s-1.42 0.655-1.481 0.731c-0.185 0.227-0.15 0.558 0.075 0.745 0.226 0.188 0.561 0.155 0.749-0.068 0.003-0.004 0.292-0.34 0.656-0.34s0.653 0.336 0.653 0.336z"></path>
<path d="M0.536 6.987c0.027 0.273 0.257 0.48 0.531 0.48h3.2c0.274 0 0.503-0.207 0.531-0.48l0.533-5.333c0.015-0.15-0.034-0.299-0.135-0.411s-0.244-0.175-0.395-0.175h-1.6v-0.533c0-0.294-0.239-0.533-0.533-0.533s-0.533 0.239-0.533 0.533v0.533h-1.6c-0.151 0-0.294 0.064-0.395 0.175s-0.15 0.261-0.135 0.411l0.533 5.333zM4.211 2.133l-0.427 4.267h-2.235l-0.427-4.267h3.088z"></path>
<path d="M14.933 12.267c0 0.596 0.244 1.151 0.686 1.561 0.102 0.095 0.233 0.142 0.363 0.142 0.143 0 0.286-0.058 0.391-0.171 0.2-0.216 0.188-0.554-0.028-0.754-0.223-0.206-0.345-0.483-0.345-0.779 0-0.442 0.281-0.842 0.7-0.996 0.174-0.064 0.302-0.214 0.338-0.396s-0.025-0.37-0.16-0.496c-0.223-0.206-0.345-0.483-0.345-0.779 0-0.555 0.437-1.019 0.994-1.057 0.205-0.014 0.383-0.143 0.459-0.334s0.036-0.407-0.102-0.558c-0.183-0.2-0.284-0.455-0.284-0.717 0-0.555 0.437-1.019 0.994-1.057 0.205-0.014 0.383-0.143 0.459-0.334s0.036-0.407-0.102-0.558c-0.183-0.2-0.284-0.455-0.284-0.717 0-0.477 0.325-0.898 0.789-1.023 0.148-0.040 0.27-0.141 0.338-0.277s0.075-0.295 0.018-0.436c-0.052-0.131-0.078-0.264-0.078-0.397 0-0.588 0.478-1.067 1.067-1.067s1.067 0.478 1.067 1.067c0 0.133-0.027 0.266-0.078 0.397-0.057 0.141-0.051 0.3 0.018 0.436s0.19 0.237 0.338 0.277c0.465 0.126 0.789 0.547 0.789 1.023 0 0.262-0.101 0.517-0.284 0.717-0.139 0.151-0.178 0.368-0.102 0.558s0.254 0.32 0.459 0.334c0.557 0.038 0.994 0.502 0.994 1.057 0 0.262-0.101 0.517-0.284 0.717-0.139 0.151-0.178 0.368-0.102 0.558s0.254 0.32 0.459 0.334c0.557 0.038 0.994 0.502 0.994 1.057 0 0.296-0.122 0.573-0.345 0.779-0.135 0.126-0.197 0.314-0.16 0.496s0.164 0.332 0.339 0.396c0.419 0.154 0.7 0.555 0.7 0.996 0 0.294 0.238 0.533 0.533 0.533s0.533-0.239 0.533-0.533c0-0.65-0.301-1.254-0.791-1.652 0.169-0.308 0.258-0.654 0.258-1.015 0-0.834-0.491-1.567-1.206-1.914 0.092-0.239 0.14-0.494 0.14-0.753 0-0.834-0.491-1.567-1.206-1.914 0.092-0.239 0.14-0.494 0.14-0.753 0-0.778-0.428-1.48-1.086-1.852 0.013-0.093 0.019-0.187 0.019-0.282-0-1.176-0.957-2.133-2.134-2.133s-2.133 0.957-2.133 2.133c0 0.094 0.006 0.188 0.019 0.282-0.658 0.372-1.086 1.074-1.086 1.852 0 0.259 0.048 0.514 0.14 0.753-0.716 0.347-1.206 1.079-1.206 1.914 0 0.259 0.048 0.514 0.14 0.753-0.716 0.347-1.206 1.079-1.206 1.914 0 0.361 0.090 0.707 0.258 1.015-0.49 0.398-0.792 1.002-0.792 1.652z"></path>
<path d="M20.063 7.425c0.271 0.112 0.583-0.017 0.697-0.288 0.010-0.026 0.025-0.054 0.040-0.082 0.015 0.027 0.029 0.054 0.039 0.079 0.084 0.207 0.284 0.333 0.494 0.333 0.067 0 0.135-0.013 0.201-0.040 0.273-0.11 0.405-0.422 0.294-0.694-0.059-0.145-0.385-0.866-1.028-0.866s-0.969 0.722-1.028 0.866c-0.11 0.271 0.020 0.58 0.291 0.692z"></path>
<path d="M31.467 30.933h-8.533c-0.295 0-0.533 0.239-0.533 0.533s0.238 0.533 0.533 0.533h8.533c0.295 0 0.533-0.239 0.533-0.533s-0.238-0.533-0.533-0.533z"></path>
<path d="M31.467 23.467h-4.8v-0.533c0-0.294-0.238-0.533-0.533-0.533s-0.533 0.239-0.533 0.533v0.533h-14.933v-0.533c0-0.294-0.239-0.533-0.533-0.533s-0.533 0.239-0.533 0.533v0.533h-4.8c-0.294 0-0.533 0.239-0.533 0.533v2.133c0 0.294 0.239 0.533 0.533 0.533h1.6v2.667c0 0.294 0.239 0.533 0.533 0.533s0.533-0.239 0.533-0.533v-2.667h21.333v2.667c0 0.294 0.238 0.533 0.533 0.533s0.533-0.239 0.533-0.533v-2.667h1.6c0.295 0 0.533-0.239 0.533-0.533v-2.133c0-0.294-0.238-0.533-0.533-0.533zM30.933 25.6h-25.6v-1.067h25.6v1.067z"></path>
<path d="M8 30.933h-4.8v-21.867c0-0.294-0.239-0.533-0.533-0.533s-0.533 0.239-0.533 0.533v21.867h-1.6c-0.294 0-0.533 0.239-0.533 0.533s0.239 0.533 0.533 0.533h7.467c0.294 0 0.533-0.239 0.533-0.533s-0.239-0.533-0.533-0.533z"></path>
<path d="M20.8 30.933h-1.067c-0.295 0-0.533 0.239-0.533 0.533s0.238 0.533 0.533 0.533h1.067c0.295 0 0.533-0.239 0.533-0.533s-0.238-0.533-0.533-0.533z"></path>
<path d="M16.533 30.933h-5.333c-0.294 0-0.533 0.239-0.533 0.533s0.239 0.533 0.533 0.533h5.333c0.295 0 0.533-0.239 0.533-0.533s-0.238-0.533-0.533-0.533z"></path>
</symbol>
<symbol id="icon-phone" viewBox="0 0 32 32">
<path d="M31.979 26.337c-0.102-0.769-0.546-1.432-1.218-1.819l-7.895-4.545c-0.967-0.557-2.194-0.395-2.983 0.395l-1.555 1.555c-0.414 0.414-1.069 0.451-1.522 0.085-1.226-0.986-2.433-2.072-3.587-3.227s-2.24-2.362-3.227-3.587c-0.365-0.454-0.329-1.109 0.085-1.523l1.555-1.555c0.789-0.789 0.951-2.016 0.395-2.983l-4.545-7.894c-0.387-0.672-1.050-1.116-1.819-1.218s-1.525 0.155-2.073 0.703l-2.343 2.343c-1.635 1.635-1.662 4.627-0.074 8.423 1.527 3.65 4.375 7.669 8.022 11.315s7.665 6.495 11.315 8.022c1.869 0.782 3.542 1.172 4.955 1.172 1.457 0 2.638-0.416 3.468-1.246l2.343-2.343c0.548-0.548 0.805-1.304 0.703-2.073zM22.35 20.871l7.895 4.545c0.39 0.225 0.648 0.61 0.707 1.056 0.050 0.375-0.048 0.744-0.268 1.041l-10.492-5.988 0.426-0.426c0.458-0.458 1.171-0.553 1.732-0.229zM5.527 1.049c0.447 0.059 0.832 0.317 1.056 0.707l4.545 7.895c0.323 0.562 0.229 1.274-0.229 1.732l-0.391 0.391-6.021-10.457c0.246-0.182 0.54-0.281 0.847-0.281 0.064 0 0.128 0.004 0.192 0.013zM28.2 30.020c-1.299 1.299-3.956 1.245-7.29-0.149-3.529-1.476-7.429-4.245-10.982-7.798s-6.323-7.453-7.798-10.982c-1.394-3.334-1.449-5.991-0.149-7.29l1.739-1.739 6.030 10.473-0.404 0.404c-0.789 0.789-0.858 2.038-0.16 2.905 1.010 1.255 2.12 2.49 3.301 3.67s2.416 2.291 3.671 3.301c0.867 0.698 2.116 0.629 2.906-0.16l0.369-0.369 10.506 5.996-1.737 1.738z"></path>
</symbol>
<symbol id="icon-VK" viewBox="0 0 32 32">
<path d="M30.518 23.654c-0.034-0.079-0.065-0.145-0.095-0.198-0.486-0.949-1.414-2.115-2.785-3.496l-0.029-0.032-0.015-0.015-0.015-0.016h-0.015c-0.622-0.643-1.016-1.076-1.181-1.297-0.302-0.422-0.369-0.849-0.205-1.281 0.117-0.327 0.554-1.017 1.312-2.072 0.399-0.559 0.714-1.007 0.947-1.344 1.681-2.426 2.411-3.975 2.187-4.65l-0.087-0.158c-0.058-0.095-0.209-0.182-0.452-0.261s-0.554-0.092-0.933-0.039l-4.199 0.031c-0.068-0.026-0.165-0.024-0.292 0.008s-0.19 0.048-0.19 0.048l-0.073 0.040-0.058 0.048c-0.049 0.031-0.102 0.087-0.16 0.166s-0.107 0.171-0.145 0.277c-0.457 1.276-0.977 2.462-1.56 3.559-0.36 0.654-0.69 1.221-0.991 1.701s-0.554 0.833-0.758 1.060c-0.204 0.227-0.389 0.408-0.554 0.546s-0.291 0.195-0.379 0.174c-0.088-0.021-0.17-0.042-0.248-0.063-0.136-0.095-0.245-0.224-0.328-0.388s-0.139-0.369-0.168-0.617c-0.029-0.248-0.046-0.461-0.051-0.641s-0.003-0.432 0.007-0.759c0.010-0.327 0.015-0.548 0.015-0.664 0-0.401 0.007-0.836 0.022-1.305s0.027-0.841 0.037-1.115c0.010-0.274 0.014-0.564 0.014-0.87s-0.017-0.546-0.051-0.72c-0.033-0.174-0.085-0.343-0.153-0.506s-0.168-0.29-0.299-0.38c-0.131-0.090-0.294-0.161-0.488-0.214-0.515-0.126-1.171-0.195-1.968-0.206-1.808-0.021-2.969 0.106-3.484 0.38-0.204 0.116-0.389 0.274-0.554 0.474-0.175 0.232-0.199 0.359-0.073 0.38 0.583 0.095 0.996 0.322 1.239 0.68l0.088 0.19c0.068 0.137 0.136 0.38 0.204 0.728s0.112 0.733 0.131 1.154c0.049 0.77 0.049 1.429 0 1.977s-0.095 0.975-0.138 1.281c-0.044 0.306-0.109 0.554-0.197 0.743s-0.146 0.306-0.175 0.348c-0.029 0.042-0.053 0.069-0.073 0.079-0.126 0.053-0.258 0.079-0.394 0.079s-0.301-0.074-0.496-0.222c-0.194-0.148-0.396-0.351-0.605-0.609s-0.445-0.62-0.707-1.083c-0.262-0.464-0.534-1.012-0.816-1.645l-0.233-0.459c-0.146-0.295-0.345-0.725-0.598-1.289s-0.476-1.11-0.671-1.637c-0.078-0.221-0.194-0.39-0.35-0.506l-0.073-0.048c-0.049-0.042-0.126-0.087-0.233-0.134s-0.219-0.082-0.335-0.103l-3.994 0.031c-0.408 0-0.685 0.1-0.831 0.301l-0.058 0.095c-0.029 0.053-0.044 0.137-0.044 0.253s0.029 0.258 0.088 0.427c0.583 1.487 1.217 2.921 1.902 4.303s1.28 2.494 1.786 3.337c0.505 0.844 1.020 1.64 1.545 2.389s0.872 1.229 1.042 1.439c0.17 0.211 0.304 0.369 0.401 0.475l0.365 0.38c0.233 0.253 0.576 0.556 1.028 0.909s0.953 0.701 1.502 1.044c0.549 0.342 1.188 0.622 1.917 0.838s1.438 0.303 2.128 0.261h1.677c0.34-0.032 0.598-0.148 0.773-0.348l0.058-0.079c0.039-0.063 0.075-0.161 0.109-0.292s0.051-0.277 0.051-0.435c-0.010-0.453 0.022-0.862 0.095-1.226s0.155-0.638 0.248-0.823c0.093-0.185 0.197-0.34 0.313-0.466s0.199-0.203 0.248-0.229c0.048-0.027 0.087-0.045 0.116-0.055 0.233-0.084 0.508-0.003 0.824 0.245s0.612 0.554 0.889 0.917c0.277 0.364 0.61 0.772 0.999 1.226s0.729 0.791 1.020 1.012l0.291 0.19c0.195 0.127 0.447 0.243 0.758 0.348s0.583 0.132 0.816 0.079l3.732-0.063c0.369 0 0.656-0.066 0.86-0.198s0.325-0.277 0.365-0.435c0.039-0.158 0.041-0.337 0.007-0.538s-0.069-0.34-0.103-0.419z"></path>
</symbol>
<symbol id="icon-YouTube" viewBox="0 0 32 32">
<path d="M23.795 6.667h-15.59c-3.059 0-5.538 2.628-5.538 5.87v8.26c0 3.242 2.48 5.87 5.538 5.87h15.59c3.059 0 5.538-2.628 5.538-5.87v-8.26c0-3.242-2.48-5.87-5.538-5.87zM20.049 17.069l-7.292 3.686c-0.194 0.098-0.419-0.052-0.419-0.28v-7.603c0-0.231 0.23-0.381 0.425-0.277l7.292 3.916c0.217 0.116 0.213 0.446-0.006 0.557z"></path>
</symbol>
</defs>
</svg>
