<svg width="24" height="24" viewBox="0 0 24 24" fill="none" xmlns="http://www.w3.org/2000/svg">
<path d="M22.8886 17.7404C22.8632 17.681 22.8395 17.6316 22.8175 17.5921C22.4531 16.8801 21.7569 16.0062 20.7291 14.9701L20.7074 14.9464L20.6965 14.9348L20.6855 14.9228H20.6745C20.2081 14.4404 19.9127 14.116 19.789 13.9499C19.5627 13.6335 19.5119 13.3133 19.6356 12.9888C19.723 12.7437 20.0513 12.2259 20.6197 11.4349C20.9187 11.0157 21.1555 10.6797 21.3303 10.4266C22.5914 8.60744 23.1382 7.44499 22.9705 6.93876L22.9053 6.82047C22.8616 6.74925 22.7486 6.68409 22.5666 6.62467C22.3841 6.56538 22.1509 6.55557 21.8666 6.59509L18.7177 6.61869C18.6667 6.59908 18.5939 6.60091 18.499 6.62467C18.4042 6.64844 18.3568 6.66037 18.3568 6.66037L18.302 6.69008L18.2585 6.72577C18.222 6.74937 18.1819 6.79088 18.1382 6.85022C18.0946 6.90934 18.0582 6.97874 18.0291 7.05781C17.6863 8.01479 17.2965 8.90453 16.859 9.72701C16.5893 10.2174 16.3416 10.6425 16.1154 11.0024C15.8895 11.3621 15.7 11.6272 15.547 11.7971C15.3938 11.9671 15.2556 12.1034 15.1314 12.2063C15.0075 12.3093 14.9128 12.3528 14.8473 12.3369C14.7816 12.321 14.7198 12.3052 14.6612 12.2894C14.5592 12.2182 14.4772 12.1213 14.4154 11.9987C14.3532 11.8761 14.3114 11.7219 14.2896 11.536C14.2678 11.35 14.2549 11.19 14.2513 11.0555C14.2478 10.9212 14.2494 10.7312 14.2568 10.486C14.2644 10.2408 14.2678 10.0748 14.2678 9.98779C14.2678 9.6872 14.2732 9.36098 14.284 9.00904C14.2951 8.65709 14.304 8.37824 14.3115 8.17281C14.3189 7.96717 14.3223 7.7496 14.3223 7.52024C14.3223 7.29087 14.3095 7.11099 14.284 6.98044C14.2589 6.85005 14.2204 6.72348 14.1695 6.60078C14.1184 6.4782 14.0436 6.38338 13.9454 6.31607C13.847 6.24884 13.7247 6.19549 13.5791 6.15584C13.1928 6.06098 12.7008 6.00967 12.1029 6.00169C10.7472 5.9859 9.87608 6.08089 9.48975 6.28652C9.33668 6.37341 9.19817 6.49212 9.07432 6.64229C8.94308 6.81635 8.92477 6.91134 9.01952 6.92696C9.45693 6.99806 9.7666 7.16813 9.94885 7.43701L10.0145 7.57949C10.0656 7.68229 10.1166 7.86429 10.1677 8.12523C10.2186 8.38618 10.2515 8.67484 10.266 8.99104C10.3024 9.56849 10.3024 10.0628 10.266 10.474C10.2295 10.8853 10.1951 11.2056 10.1622 11.435C10.1293 11.6643 10.0801 11.8502 10.0145 11.9925C9.94885 12.1348 9.90515 12.2219 9.88325 12.2534C9.86138 12.285 9.84315 12.3049 9.82867 12.3127C9.73393 12.3521 9.63539 12.3722 9.53341 12.3722C9.43127 12.3722 9.30743 12.3168 9.16167 12.206C9.01595 12.0952 8.86472 11.943 8.70798 11.7492C8.55123 11.5554 8.37446 11.2845 8.17758 10.9366C7.98085 10.5886 7.77673 10.1774 7.56534 9.70287L7.39044 9.35874C7.2811 9.13735 7.13175 8.81499 6.94222 8.39195C6.75258 7.96875 6.58496 7.55938 6.43924 7.16393C6.38099 6.99785 6.29349 6.87141 6.17688 6.7844L6.12215 6.7487C6.08577 6.71713 6.02737 6.68359 5.94725 6.64786C5.86702 6.61217 5.78331 6.58657 5.69576 6.57082L2.6999 6.59442C2.39376 6.59442 2.18604 6.66967 2.07667 6.81997L2.0329 6.89106C2.01103 6.93066 2 6.9939 2 7.08095C2 7.16796 2.02187 7.27475 2.06564 7.40119C2.50298 8.51644 2.97858 9.59201 3.49244 10.6281C4.00629 11.6641 4.45282 12.4987 4.83176 13.131C5.21078 13.7638 5.59711 14.361 5.99076 14.9224C6.3844 15.484 6.64497 15.8438 6.77246 16.0019C6.9001 16.1603 7.00036 16.2788 7.07323 16.3578L7.34663 16.6425C7.52157 16.8324 7.77846 17.0597 8.11741 17.3246C8.45645 17.5897 8.83179 17.8506 9.24362 18.1079C9.65554 18.3647 10.1347 18.5743 10.6815 18.7364C11.2282 18.8986 11.7603 18.9638 12.2778 18.9323H13.5352C13.7902 18.9084 13.9835 18.8214 14.1148 18.6713L14.1583 18.6118C14.1875 18.5646 14.2149 18.4913 14.2402 18.3926C14.2658 18.2937 14.2785 18.1848 14.2785 18.0664C14.271 17.7263 14.2949 17.4199 14.3494 17.1471C14.4039 16.8743 14.466 16.6687 14.5355 16.5302C14.6049 16.3918 14.6833 16.2751 14.7705 16.1804C14.8579 16.0855 14.9201 16.0281 14.9567 16.0083C14.993 15.9884 15.022 15.9749 15.0438 15.9668C15.2188 15.9035 15.4246 15.9648 15.6618 16.1508C15.8987 16.3367 16.1209 16.5662 16.3288 16.8389C16.5366 17.1119 16.7862 17.4182 17.0777 17.7582C17.3694 18.0984 17.6245 18.3512 17.843 18.5175L18.0616 18.6599C18.2076 18.7549 18.3972 18.8419 18.6304 18.921C18.8633 19 19.0674 19.0198 19.2426 18.9802L22.0415 18.9329C22.3184 18.9329 22.5338 18.8831 22.6866 18.7845C22.8397 18.6856 22.9306 18.5767 22.96 18.4582C22.9892 18.3396 22.9908 18.2051 22.9655 18.0547C22.9396 17.9046 22.9141 17.7997 22.8886 17.7404Z" fill="white"/>
</svg>
